<svg width="291" height="303" viewBox="0 0 291 303" fill="none" xmlns="http://www.w3.org/2000/svg">
<g clip-path="url(#clip0_6_2)">
<path d="M270.97 69.83C269.99 68.12 268.98 66.44 267.92 64.81L208.34 140.41C208.58 143.89 208.7 147.49 208.7 151.21C208.7 180.41 201.4 202.32 186.8 216.91C174.04 229.68 155.45 236.87 131.06 238.46C127.58 238.69 123.97 238.81 120.25 238.81H92.14L199.24 102.92L248.14 40.88C238.57 31.89 227.42 24.29 214.72 18.08C205.81 13.74 196.2 10.17 185.92 7.40004C167.76 2.49004 147.44 0.0400391 124.96 0.0400391H0V302.81H124.96C160.17 302.81 190.09 296.87 214.72 284.99C239.34 273.11 258.09 255.78 270.97 233.03C283.85 210.27 290.3 183 290.3 151.21C290.3 119.42 283.85 92.31 270.97 69.84V69.83ZM79.02 64.03H120.25C127.37 64.03 134.05 64.44 140.31 65.26L79.02 143.03V64.03Z" fill="white"/>
</g>
<defs>
<clipPath id="clip0_6_2">
<rect width="290.3" height="302.77" fill="white" transform="translate(0 0.0400391)"/>
</clipPath>
</defs>
</svg>
