<svg width="1369" height="324" viewBox="0 0 1369 324" fill="none" xmlns="http://www.w3.org/2000/svg">
<g clip-path="url(#clip0_6_14)">
<path d="M270.97 85.81C269.99 84.1 268.98 82.42 267.92 80.79L208.34 156.39C208.58 159.87 208.7 163.47 208.7 167.19C208.7 196.39 201.4 218.3 186.8 232.89C174.04 245.66 155.45 252.85 131.06 254.44C127.58 254.67 123.97 254.79 120.25 254.79H92.14L199.24 118.9L248.14 56.86C238.57 47.87 227.42 40.27 214.72 34.06C205.81 29.72 196.2 26.15 185.92 23.38C167.76 18.48 147.44 16.02 124.96 16.02H0V318.79H124.96C160.17 318.79 190.09 312.85 214.72 300.97C239.34 289.09 258.09 271.76 270.97 249.01C283.85 226.25 290.3 198.98 290.3 167.19C290.3 135.4 283.85 108.29 270.97 85.82V85.81ZM79.02 80.01H120.25C127.37 80.01 134.05 80.42 140.31 81.24L79.02 159.01V80V80.01Z" fill="white"/>
<path d="M412.17 323.08C393.81 323.08 378.75 319.71 366.99 312.97C355.23 306.23 346.41 296.05 340.53 282.42C334.65 268.8 331.71 251.81 331.71 231.44V106.24H408.29V233.16C408.29 240.04 409.22 245.78 411.08 250.37C412.94 254.96 415.81 258.41 419.69 260.7C423.56 263 428.65 264.14 434.96 264.14C441.84 264.14 447.94 262.49 453.25 259.19C458.55 255.89 462.78 251.16 465.94 244.99C469.09 238.83 470.67 231.58 470.67 223.26V106.23H547.25V317.91H471.95V279.19H478.84C472.53 293.24 463.71 304.07 452.38 311.67C441.04 319.27 427.64 323.07 412.15 323.07L412.17 323.08Z" fill="white"/>
<path d="M665.16 323.08C648.81 323.08 634.32 319.99 621.71 313.83C609.08 307.67 599.26 299.35 592.24 288.88C585.21 278.41 581.7 266.44 581.7 252.95C581.7 237.46 585.71 225.28 593.75 216.38C601.78 207.49 614.76 201.11 632.69 197.23C650.61 193.36 674.35 191.42 703.89 191.42H727.56V227.13H703.89C695.29 227.13 687.97 227.71 681.95 228.85C675.93 230 670.9 231.43 666.89 233.15C662.87 234.87 659.93 237.09 658.07 239.82C656.2 242.55 655.27 245.92 655.27 249.93C655.27 256.53 657.57 261.98 662.16 266.28C666.74 270.58 673.63 272.74 682.81 272.74C689.69 272.74 695.93 271.17 701.52 268.01C707.11 264.86 711.63 260.48 715.08 254.89C718.52 249.3 720.24 242.78 720.24 235.31V185.4C720.24 174.79 717.59 167.4 712.28 163.24C706.97 159.09 698.01 157 685.39 157C674.2 157 662.08 158.72 649.04 162.16C635.98 165.6 623.01 170.91 610.1 178.08L590.31 127.74C597.76 122.58 607.09 117.99 618.28 113.97C629.47 109.96 641.3 106.8 653.77 104.51C666.25 102.22 677.79 101.07 688.41 101.07C711.93 101.07 731.36 104.51 746.71 111.39C762.05 118.28 773.53 128.68 781.13 142.58C788.73 156.5 792.53 174.35 792.53 196.15V317.91H721.11V277.9H723.69C722.25 286.79 718.96 294.61 713.8 301.35C708.64 308.09 701.89 313.4 693.58 317.27C685.26 321.14 675.79 323.08 665.18 323.08H665.16Z" fill="white"/>
<path d="M919.86 323.08C890.31 323.08 868.94 315.62 855.75 300.71C842.55 285.8 835.96 263.43 835.96 233.59V14.6001H912.54V231.01C912.54 237.32 913.47 242.77 915.33 247.36C917.19 251.95 920.2 255.39 924.37 257.68C928.52 259.98 933.76 261.12 940.07 261.12C943.22 261.12 946.23 260.98 949.1 260.69C951.97 260.41 954.83 259.98 957.71 259.4L956.85 317.91C950.83 319.63 944.8 320.92 938.78 321.78C932.76 322.64 926.44 323.07 919.85 323.07L919.86 323.08Z" fill="white"/>
<path d="M983.53 69.6701V0.830078H1063.98V69.6701H983.53ZM985.68 317.92V106.24H1062.26V317.92H985.68Z" fill="white"/>
<path d="M1217.58 323.08C1185.45 323.08 1161.65 315.55 1146.16 300.49C1130.67 285.43 1122.93 262.85 1122.93 232.73V162.6H1083.35V106.24H1122.93V44.7201H1199.51V106.24H1259.75V162.6H1199.51V230.15C1199.51 240.77 1201.95 248.58 1206.83 253.6C1211.7 258.62 1219.59 261.13 1230.49 261.13C1234.22 261.13 1238.16 260.7 1242.32 259.84C1246.47 258.98 1251.28 257.84 1256.73 256.4L1266.62 311.9C1260.31 315.34 1252.64 318.06 1243.6 320.08C1234.56 322.08 1225.88 323.09 1217.57 323.09L1217.58 323.08Z" fill="white"/>
<path d="M1287.71 69.6701V0.830078H1368.16V69.6701H1287.71ZM1289.86 317.92V106.24H1366.44V317.92H1289.86Z" fill="white"/>
</g>
<defs>
<clipPath id="clip0_6_14">
<rect width="1368.16" height="322.25" fill="white" transform="translate(0 0.830078)"/>
</clipPath>
</defs>
</svg>
