<svg width="358" height="414" viewBox="0 0 358 414" fill="none" xmlns="http://www.w3.org/2000/svg">
<g clip-path="url(#clip0_3_27)">
<path d="M270.97 69.79C269.99 68.08 268.98 66.4 267.92 64.77L208.34 140.37C208.58 143.85 208.7 147.45 208.7 151.17C208.7 180.37 201.4 202.28 186.8 216.87C174.04 229.64 155.45 236.83 131.06 238.42C127.58 238.65 123.97 238.77 120.25 238.77H92.14L199.24 102.88L248.14 40.84C238.57 31.85 227.42 24.25 214.72 18.04C205.81 13.7 196.2 10.13 185.92 7.36C167.76 2.45 147.44 0 124.96 0H0V302.77H124.96C160.17 302.77 190.09 296.83 214.72 284.95C239.34 273.07 258.09 255.74 270.97 232.99C283.85 210.23 290.3 182.96 290.3 151.17C290.3 119.38 283.85 92.27 270.97 69.8V69.79ZM79.02 63.99H120.25C127.37 63.99 134.05 64.4 140.31 65.22L79.02 142.99V63.99Z" fill="#1B1B1B"/>
<path d="M0 412.44V333.1H32.75C41.98 333.1 49.82 334.67 56.27 337.83C62.72 340.98 67.64 345.5 71.01 351.39C74.39 357.28 76.07 364.39 76.07 372.72C76.07 381.05 74.38 388.19 71.01 394.16C67.63 400.12 62.72 404.66 56.27 407.78C49.82 410.89 41.98 412.45 32.75 412.45H0V412.44ZM20.71 395.67H31.51C39.31 395.67 45.13 393.76 48.95 389.93C52.78 386.1 54.69 380.36 54.69 372.71C54.69 365.06 52.78 359.24 48.95 355.49C45.12 351.74 39.31 349.86 31.51 349.86H20.71V395.66V395.67Z" fill="#1B1B1B"/>
<path d="M107.81 413.79C103.01 413.79 99.07 412.91 95.99 411.14C92.91 409.38 90.61 406.71 89.07 403.15C87.53 399.59 86.76 395.14 86.76 389.82V357.07H106.79V390.27C106.79 392.07 107.03 393.57 107.52 394.77C108.01 395.97 108.76 396.87 109.77 397.47C110.78 398.07 112.11 398.37 113.77 398.37C115.57 398.37 117.16 397.94 118.55 397.08C119.94 396.22 121.04 394.98 121.87 393.37C122.69 391.76 123.11 389.86 123.11 387.69V357.08H143.14V412.45H123.45V402.32H125.25C123.6 406 121.29 408.83 118.33 410.82C115.36 412.81 111.86 413.8 107.81 413.8V413.79Z" fill="#1B1B1B"/>
<path d="M173.98 413.79C169.7 413.79 165.91 412.98 162.61 411.37C159.31 409.76 156.74 407.58 154.9 404.84C153.06 402.1 152.14 398.97 152.14 395.44C152.14 391.39 153.19 388.2 155.29 385.87C157.39 383.55 160.78 381.87 165.47 380.86C170.16 379.85 176.37 379.34 184.09 379.34H190.28V388.68H184.09C181.84 388.68 179.93 388.83 178.35 389.13C176.77 389.43 175.46 389.81 174.41 390.26C173.36 390.71 172.59 391.29 172.1 392C171.61 392.71 171.37 393.59 171.37 394.64C171.37 396.37 171.97 397.79 173.17 398.92C174.37 400.05 176.17 400.61 178.57 400.61C180.37 400.61 182 400.2 183.46 399.37C184.92 398.55 186.11 397.4 187.01 395.94C187.91 394.48 188.36 392.77 188.36 390.82V377.77C188.36 375 187.67 373.06 186.28 371.97C184.89 370.88 182.55 370.34 179.25 370.34C176.32 370.34 173.15 370.79 169.74 371.69C166.32 372.59 162.93 373.98 159.56 375.85L154.38 362.68C156.33 361.33 158.77 360.13 161.69 359.08C164.62 358.03 167.71 357.21 170.97 356.6C174.23 356 177.25 355.7 180.03 355.7C186.18 355.7 191.26 356.6 195.28 358.4C199.29 360.2 202.29 362.92 204.28 366.56C206.27 370.2 207.26 374.87 207.26 380.57V412.42H188.58V401.95H189.26C188.88 404.28 188.02 406.32 186.67 408.08C185.32 409.84 183.56 411.23 181.38 412.24C179.2 413.25 176.73 413.76 173.95 413.76L173.98 413.79Z" fill="#1B1B1B"/>
<path d="M240.6 413.79C232.87 413.79 227.28 411.84 223.83 407.94C220.38 404.04 218.65 398.19 218.65 390.38V333.1H238.68V389.71C238.68 391.36 238.92 392.79 239.41 393.99C239.9 395.19 240.68 396.09 241.77 396.69C242.86 397.29 244.23 397.59 245.88 397.59C246.7 397.59 247.49 397.55 248.24 397.48C248.99 397.41 249.74 397.29 250.49 397.14L250.26 412.44C248.68 412.89 247.11 413.23 245.53 413.45C243.95 413.68 242.3 413.79 240.58 413.79H240.6Z" fill="#1B1B1B"/>
<path d="M257.26 347.5V329.49H278.3V347.5H257.26ZM257.82 412.44V357.07H277.85V412.44H257.82Z" fill="#1B1B1B"/>
<path d="M318.47 413.79C310.07 413.79 303.84 411.82 299.79 407.88C295.74 403.94 293.71 398.03 293.71 390.16V371.82H283.36V357.08H293.71V340.99H313.74V357.08H329.5V371.82H313.74V389.49C313.74 392.27 314.38 394.31 315.65 395.62C316.92 396.93 318.99 397.59 321.84 397.59C322.81 397.59 323.85 397.48 324.94 397.25C326.03 397.02 327.28 396.73 328.71 396.35L331.3 410.87C329.65 411.77 327.64 412.48 325.28 413.01C322.92 413.53 320.65 413.8 318.47 413.8V413.79Z" fill="#1B1B1B"/>
<path d="M336.82 347.5V329.49H357.86V347.5H336.82ZM337.38 412.44V357.07H357.41V412.44H337.38Z" fill="#1B1B1B"/>
</g>
<defs>
<clipPath id="clip0_3_27">
<rect width="357.86" height="413.79" fill="white"/>
</clipPath>
</defs>
</svg>
