<svg width="1369" height="323" viewBox="0 0 1369 323" fill="none" xmlns="http://www.w3.org/2000/svg">
<g clip-path="url(#clip0_3_26)">
<path d="M270.97 84.98C269.99 83.27 268.98 81.59 267.92 79.96L208.34 155.56C208.58 159.04 208.7 162.64 208.7 166.36C208.7 195.56 201.4 217.47 186.8 232.06C174.04 244.83 155.45 252.02 131.06 253.61C127.58 253.84 123.97 253.96 120.25 253.96H92.14L199.24 118.07L248.14 56.03C238.57 47.04 227.42 39.44 214.72 33.23C205.81 28.89 196.2 25.32 185.92 22.55C167.76 17.65 147.44 15.19 124.96 15.19H0V317.96H124.96C160.17 317.96 190.09 312.02 214.72 300.14C239.34 288.26 258.09 270.93 270.97 248.18C283.85 225.42 290.3 198.15 290.3 166.36C290.3 134.57 283.85 107.46 270.97 84.99V84.98ZM79.02 79.18H120.25C127.37 79.18 134.05 79.59 140.31 80.41L79.02 158.18V79.17V79.18Z" fill="#1B1B1B"/>
<path d="M412.17 322.25C393.81 322.25 378.75 318.88 366.99 312.14C355.23 305.4 346.41 295.22 340.53 281.59C334.65 267.97 331.71 250.98 331.71 230.61V105.41H408.29V232.33C408.29 239.21 409.22 244.95 411.08 249.54C412.94 254.13 415.81 257.58 419.69 259.87C423.56 262.17 428.65 263.31 434.96 263.31C441.84 263.31 447.94 261.66 453.25 258.36C458.55 255.06 462.78 250.33 465.94 244.16C469.09 238 470.67 230.75 470.67 222.43V105.4H547.25V317.08H471.95V278.36H478.84C472.53 292.41 463.71 303.24 452.38 310.84C441.04 318.44 427.64 322.24 412.15 322.24L412.17 322.25Z" fill="#1B1B1B"/>
<path d="M665.16 322.25C648.81 322.25 634.32 319.16 621.71 313C609.08 306.84 599.26 298.52 592.24 288.05C585.21 277.58 581.7 265.61 581.7 252.12C581.7 236.63 585.71 224.45 593.75 215.55C601.78 206.66 614.76 200.28 632.69 196.4C650.61 192.53 674.35 190.59 703.89 190.59H727.56V226.3H703.89C695.29 226.3 687.97 226.88 681.95 228.02C675.93 229.17 670.9 230.6 666.89 232.32C662.87 234.04 659.93 236.26 658.07 238.99C656.2 241.72 655.27 245.09 655.27 249.1C655.27 255.7 657.57 261.15 662.16 265.45C666.74 269.75 673.63 271.91 682.81 271.91C689.69 271.91 695.93 270.34 701.52 267.18C707.11 264.03 711.63 259.65 715.08 254.06C718.52 248.47 720.24 241.95 720.24 234.48V184.57C720.24 173.96 717.59 166.57 712.28 162.41C706.97 158.26 698.01 156.17 685.39 156.17C674.2 156.17 662.08 157.89 649.04 161.33C635.98 164.77 623.01 170.08 610.1 177.25L590.31 126.91C597.76 121.75 607.09 117.16 618.28 113.14C629.47 109.13 641.3 105.97 653.77 103.68C666.25 101.39 677.79 100.24 688.41 100.24C711.93 100.24 731.36 103.68 746.71 110.56C762.05 117.45 773.53 127.85 781.13 141.75C788.73 155.67 792.53 173.52 792.53 195.32V317.08H721.11V277.07H723.69C722.25 285.96 718.96 293.78 713.8 300.52C708.64 307.26 701.89 312.57 693.58 316.44C685.26 320.31 675.79 322.25 665.18 322.25H665.16Z" fill="#1B1B1B"/>
<path d="M919.86 322.25C890.31 322.25 868.94 314.79 855.75 299.88C842.55 284.97 835.96 262.6 835.96 232.76V13.77H912.54V230.18C912.54 236.49 913.47 241.94 915.33 246.53C917.19 251.12 920.2 254.56 924.37 256.85C928.52 259.15 933.76 260.29 940.07 260.29C943.22 260.29 946.23 260.15 949.1 259.86C951.97 259.58 954.83 259.15 957.71 258.57L956.85 317.08C950.83 318.8 944.8 320.09 938.78 320.95C932.76 321.81 926.44 322.24 919.85 322.24L919.86 322.25Z" fill="#1B1B1B"/>
<path d="M983.53 68.84V0H1063.98V68.84H983.53ZM985.68 317.09V105.41H1062.26V317.09H985.68Z" fill="#1B1B1B"/>
<path d="M1217.58 322.25C1185.45 322.25 1161.65 314.72 1146.16 299.66C1130.67 284.6 1122.93 262.02 1122.93 231.9V161.77H1083.35V105.41H1122.93V43.89H1199.51V105.41H1259.75V161.77H1199.51V229.32C1199.51 239.94 1201.95 247.75 1206.83 252.77C1211.7 257.79 1219.59 260.3 1230.49 260.3C1234.22 260.3 1238.16 259.87 1242.32 259.01C1246.47 258.15 1251.28 257.01 1256.73 255.57L1266.62 311.07C1260.31 314.51 1252.64 317.23 1243.6 319.25C1234.56 321.25 1225.88 322.26 1217.57 322.26L1217.58 322.25Z" fill="#1B1B1B"/>
<path d="M1287.71 68.84V0H1368.16V68.84H1287.71ZM1289.86 317.09V105.41H1366.44V317.09H1289.86Z" fill="#1B1B1B"/>
</g>
<defs>
<clipPath id="clip0_3_26">
<rect width="1368.16" height="322.25" fill="white"/>
</clipPath>
</defs>
</svg>
