<svg width="359" height="414" viewBox="0 0 359 414" fill="none" xmlns="http://www.w3.org/2000/svg">
<g clip-path="url(#clip0_6_4)">
<path d="M271.27 69.83C270.29 68.12 269.28 66.44 268.22 64.81L208.64 140.41C208.88 143.89 209 147.49 209 151.21C209 180.41 201.7 202.32 187.1 216.91C174.34 229.68 155.75 236.87 131.36 238.46C127.88 238.69 124.27 238.81 120.55 238.81H92.44L199.54 102.92L248.44 40.88C238.87 31.89 227.72 24.29 215.02 18.08C206.11 13.74 196.5 10.17 186.22 7.40004C168.06 2.49004 147.74 0.0400391 125.26 0.0400391H0.299988V302.81H125.26C160.47 302.81 190.39 296.87 215.02 284.99C239.64 273.11 258.39 255.78 271.27 233.03C284.15 210.27 290.6 183 290.6 151.21C290.6 119.42 284.15 92.31 271.27 69.84V69.83ZM79.32 64.03H120.55C127.67 64.03 134.35 64.44 140.61 65.26L79.32 143.03V64.03Z" fill="white"/>
<path d="M0.299988 412.48V333.14H33.05C42.28 333.14 50.12 334.71 56.57 337.87C63.02 341.02 67.94 345.54 71.31 351.43C74.69 357.32 76.37 364.43 76.37 372.76C76.37 381.09 74.68 388.23 71.31 394.2C67.93 400.16 63.02 404.7 56.57 407.82C50.12 410.93 42.28 412.49 33.05 412.49H0.299988V412.48ZM21.01 395.71H31.81C39.61 395.71 45.43 393.8 49.25 389.97C53.08 386.14 54.99 380.4 54.99 372.75C54.99 365.1 53.08 359.28 49.25 355.53C45.42 351.78 39.61 349.9 31.81 349.9H21.01V395.7V395.71Z" fill="white"/>
<path d="M108.11 413.83C103.31 413.83 99.37 412.95 96.29 411.18C93.21 409.42 90.91 406.75 89.37 403.19C87.83 399.63 87.06 395.18 87.06 389.86V357.11H107.09V390.31C107.09 392.11 107.33 393.61 107.82 394.81C108.31 396.01 109.06 396.91 110.07 397.51C111.08 398.11 112.41 398.41 114.07 398.41C115.87 398.41 117.46 397.98 118.85 397.12C120.24 396.26 121.34 395.02 122.17 393.41C122.99 391.8 123.41 389.9 123.41 387.73V357.12H143.44V412.49H123.75V402.36H125.55C123.9 406.04 121.59 408.87 118.63 410.86C115.66 412.85 112.16 413.84 108.11 413.84V413.83Z" fill="white"/>
<path d="M174.28 413.83C170 413.83 166.21 413.02 162.91 411.41C159.61 409.8 157.04 407.62 155.2 404.88C153.36 402.14 152.44 399.01 152.44 395.48C152.44 391.43 153.49 388.24 155.59 385.91C157.69 383.59 161.08 381.91 165.77 380.9C170.46 379.89 176.67 379.38 184.39 379.38H190.58V388.72H184.39C182.14 388.72 180.23 388.87 178.65 389.17C177.07 389.47 175.76 389.85 174.71 390.3C173.66 390.75 172.89 391.33 172.4 392.04C171.91 392.75 171.67 393.63 171.67 394.68C171.67 396.41 172.27 397.83 173.47 398.96C174.67 400.09 176.47 400.65 178.87 400.65C180.67 400.65 182.3 400.24 183.76 399.41C185.22 398.59 186.41 397.44 187.31 395.98C188.21 394.52 188.66 392.81 188.66 390.86V377.81C188.66 375.04 187.97 373.1 186.58 372.01C185.19 370.92 182.85 370.38 179.55 370.38C176.62 370.38 173.45 370.83 170.04 371.73C166.62 372.63 163.23 374.02 159.86 375.89L154.68 362.72C156.63 361.37 159.07 360.17 161.99 359.12C164.92 358.07 168.01 357.25 171.27 356.64C174.53 356.04 177.55 355.74 180.33 355.74C186.48 355.74 191.56 356.64 195.58 358.44C199.59 360.24 202.59 362.96 204.58 366.6C206.57 370.24 207.56 374.91 207.56 380.61V412.46H188.88V401.99H189.56C189.18 404.32 188.32 406.36 186.97 408.12C185.62 409.88 183.86 411.27 181.68 412.28C179.5 413.29 177.03 413.8 174.25 413.8L174.28 413.83Z" fill="white"/>
<path d="M240.9 413.83C233.17 413.83 227.58 411.88 224.13 407.98C220.68 404.08 218.95 398.23 218.95 390.42V333.14H238.98V389.75C238.98 391.4 239.22 392.83 239.71 394.03C240.2 395.23 240.98 396.13 242.07 396.73C243.16 397.33 244.53 397.63 246.18 397.63C247 397.63 247.79 397.59 248.54 397.52C249.29 397.45 250.04 397.33 250.79 397.18L250.56 412.48C248.98 412.93 247.41 413.27 245.83 413.49C244.25 413.72 242.6 413.83 240.88 413.83H240.9Z" fill="white"/>
<path d="M257.56 347.54V329.53H278.6V347.54H257.56ZM258.12 412.48V357.11H278.15V412.48H258.12Z" fill="white"/>
<path d="M318.77 413.83C310.37 413.83 304.14 411.86 300.09 407.92C296.04 403.98 294.01 398.07 294.01 390.2V371.86H283.66V357.12H294.01V341.03H314.04V357.12H329.8V371.86H314.04V389.53C314.04 392.31 314.68 394.35 315.95 395.66C317.22 396.97 319.29 397.63 322.14 397.63C323.11 397.63 324.15 397.52 325.24 397.29C326.33 397.06 327.58 396.77 329.01 396.39L331.6 410.91C329.95 411.81 327.94 412.52 325.58 413.05C323.22 413.57 320.95 413.84 318.77 413.84V413.83Z" fill="white"/>
<path d="M337.12 347.54V329.53H358.16V347.54H337.12ZM337.68 412.48V357.11H357.71V412.48H337.68Z" fill="white"/>
</g>
<defs>
<clipPath id="clip0_6_4">
<rect width="357.86" height="413.79" fill="white" transform="translate(0.299988 0.0400391)"/>
</clipPath>
</defs>
</svg>
