<svg width="291" height="303" viewBox="0 0 291 303" fill="none" xmlns="http://www.w3.org/2000/svg">
<g clip-path="url(#clip0_3_28)">
<path d="M270.97 69.79C269.99 68.08 268.98 66.4 267.92 64.77L208.34 140.37C208.58 143.85 208.7 147.45 208.7 151.17C208.7 180.37 201.4 202.28 186.8 216.87C174.04 229.64 155.45 236.83 131.06 238.42C127.58 238.65 123.97 238.77 120.25 238.77H92.14L199.24 102.88L248.14 40.84C238.57 31.85 227.42 24.25 214.72 18.04C205.81 13.7 196.2 10.13 185.92 7.36C167.76 2.45 147.44 0 124.96 0H0V302.77H124.96C160.17 302.77 190.09 296.83 214.72 284.95C239.34 273.07 258.09 255.74 270.97 232.99C283.85 210.23 290.3 182.96 290.3 151.17C290.3 119.38 283.85 92.27 270.97 69.8V69.79ZM79.02 63.99H120.25C127.37 63.99 134.05 64.4 140.31 65.22L79.02 142.99V63.99Z" fill="#1B1B1B"/>
</g>
<defs>
<clipPath id="clip0_3_28">
<rect width="290.3" height="302.77" fill="white"/>
</clipPath>
</defs>
</svg>
